# xmcd
#
# Track frame offsets: 
#        150
#        22607
#        36027
#        58007
#        76505
#        96180
#        115102
#        131067
#        151287
#        167945
#        184845
#        197630
#        214575
#        234375
#        246957
#        261792
#        285862
#        301533
#        314662
#
# Disc length: 4423 seconds
#
# Revision: 4
# Processed by: cddbd v1.5.2PL0 Copyright (c) Steve Scherf et al.
# Submitted via: ExactAudioCopy v1.0b1
#
DISCID=ef114513
DTITLE=Various Artist - The Alligator Records 25th Anniversary Collection (Di
DTITLE=sc 2 of 2)
DYEAR=1996
DGENRE=Blues
TTITLE0=Koko Taylor - Evil
TTITLE1=Lonnie Brooks - Got Lucky Last Night
TTITLE2=Steady Rollin' Bob Margolin - Blues Lover
TTITLE3=Little Charlie And The Nightcats - I Could Deal With It
TTITLE4=Luther Allison - Cherry Red Wine
TTITLE5=Katie Webster - Hard Lovin' Mama
TTITLE6=Elvin Bishop - She Puts Me In The Mood
TTITLE7=Cary Bell - Low Down Dirty Shame
TTITLE8=Lucky Peterson - Six O'clock Blues
TTITLE9=Dave Hole - Keep Your Motor Running
TTITLE10=Corey Harris - Roots Woman
TTITLE11=Michael Hill's Blues Mob - Can't Recall A Time
TTITLE12=Roy Buchanan Wtih Delbert Mcclinton - Baby, Baby, Baby
TTITLE13=Roy Buchanan - Jack The Ripper
TTITLE14=Sonny Boy Williamson - The Sky Is Crying
TTITLE15=Johnny Winter - Love, Life And Money
TTITLE16=Hound Dog Taylor - Look On Yonder's Wall
TTITLE17=Fenton Robinson - Somebody Loan Me A Dime
TTITLE18=Clarence "Gatemouth" Brown - We're Outta Here
EXTD=
EXTT0=
EXTT1=
EXTT2=
EXTT3=
EXTT4=
EXTT5=
EXTT6=
EXTT7=
EXTT8=
EXTT9=
EXTT10=
EXTT11=
EXTT12=
EXTT13=
EXTT14=
EXTT15=
EXTT16=
EXTT17=
EXTT18=
PLAYORDER=
